<svg id="レイヤー_1" data-name="レイヤー 1" xmlns="http://www.w3.org/2000/svg" viewBox="0 0 140 50"><title>アートボード 2</title><path d="M54.23,39.48c-2,0-3.26-.67-3.26-4V22.61h6.47V19.73H51V13.41H47.81v6.32H43.07v2.88h4.74V36.36c0,4.94,3.16,6,5.56,6a10.68,10.68,0,0,0,4.26-.81l-.14-2.93a7,7,0,0,1-3.26.87"/><path d="M65.58,23.9h-.09V19.73H62.37c.1,3.26.2,5,.2,7V41.78h3.16V29.5c0-3,2.15-7.18,6.94-7.18a5.17,5.17,0,0,1,1.82.24l.63-3.12a8.65,8.65,0,0,0-2.35-.28,7.37,7.37,0,0,0-7.19,4.74"/><rect x="79.33" y="7" width="3.16" height="34.78"/><path d="M30.39,39.48c-9,0-14.52-6.85-14.52-14.66S21.4,10.16,30.39,10.16a13.07,13.07,0,0,1,7.5,2.3L40,9.85A16.33,16.33,0,0,0,30.39,7C20,7,12.17,14.52,12.17,24.82S20,42.64,30.39,42.64a18.12,18.12,0,0,0,10.79-3.5l-2.29-2.49a13,13,0,0,1-8.5,2.83"/><polygon points="96.96 25.65 96.96 23.95 92.7 23.95 92.7 19.69 91.01 19.69 91.01 23.95 86.75 23.95 86.75 25.65 91.01 25.65 91.01 29.91 92.7 29.91 92.7 25.65 96.96 25.65"/><path d="M123.72,41.78h4L113.43,7.86h-3.56L95.55,41.78h4l3.48-8.71h17.19ZM104.31,29.91l7.34-18.36L119,29.91Z"/></svg>